<?xml version="1.0" standalone="no"?>
<!DOCTYPE svg PUBLIC "-//W3C//DTD SVG 20010904//EN"
 "http://www.w3.org/TR/2001/REC-SVG-20010904/DTD/svg10.dtd">
<svg version="1.0" xmlns="http://www.w3.org/2000/svg"
 width="995.000000pt" height="995.000000pt" viewBox="0 0 995.000000 995.000000"
 preserveAspectRatio="xMidYMid meet">
<metadata>
Created by potrace 1.14, written by Peter Selinger 2001-2017
</metadata>
<g transform="translate(0.000000,995.000000) scale(0.100000,-0.100000)"
fill="#000000" stroke="none">
<path d="M4740 9927 c-3 -3 -52 -7 -110 -11 -122 -6 -239 -18 -330 -31 -19 -3
-48 -7 -65 -9 -73 -9 -324 -58 -400 -78 -22 -5 -50 -12 -63 -14 -38 -7 -352
-101 -447 -134 -231 -80 -609 -252 -800 -364 -33 -20 -67 -39 -75 -43 -31 -14
-275 -173 -361 -235 -25 -18 -68 -48 -94 -67 -26 -19 -55 -41 -64 -50 -9 -9
-29 -25 -45 -36 -15 -11 -36 -27 -46 -35 -9 -8 -39 -33 -66 -55 -26 -22 -58
-49 -70 -60 -12 -11 -41 -37 -65 -59 -114 -100 -321 -311 -414 -421 -27 -32
-57 -66 -65 -75 -40 -45 -209 -264 -260 -340 -8 -12 -23 -33 -32 -45 -10 -13
-18 -28 -18 -33 0 -5 -7 -12 -15 -16 -8 -3 -15 -10 -15 -17 0 -6 -10 -25 -22
-42 -13 -18 -28 -41 -34 -52 -14 -25 -121 -204 -134 -225 -15 -23 -172 -339
-197 -395 -12 -28 -32 -72 -44 -100 -26 -60 -138 -357 -149 -400 -5 -16 -27
-95 -50 -175 -41 -142 -83 -316 -100 -415 -5 -27 -12 -63 -15 -80 -21 -118
-25 -146 -49 -350 -14 -116 -21 -276 -21 -500 0 -221 10 -489 19 -504 2 -4 6
-36 10 -73 6 -72 20 -170 36 -260 5 -32 14 -82 19 -110 44 -250 186 -732 271
-923 5 -11 30 -68 55 -127 24 -59 63 -142 85 -185 22 -43 40 -81 40 -84 0 -5
107 -202 129 -239 5 -8 28 -46 51 -85 42 -69 184 -286 207 -315 6 -8 42 -56
80 -106 232 -308 526 -614 818 -852 6 -4 46 -36 90 -70 44 -34 87 -68 96 -77
9 -8 21 -15 27 -15 5 0 12 -3 14 -7 6 -16 301 -213 317 -213 5 0 11 -4 13 -8
11 -27 457 -257 668 -345 192 -79 496 -185 610 -212 8 -2 60 -15 115 -29 120
-30 320 -70 430 -86 44 -7 89 -14 100 -16 76 -15 222 -19 670 -19 456 0 581 4
665 20 13 3 42 7 65 10 22 4 78 13 125 21 47 9 99 18 115 20 100 17 425 104
589 158 422 141 819 334 1183 577 168 111 385 273 391 290 2 5 10 9 17 9 7 0
15 4 17 9 2 4 37 37 78 72 41 35 93 82 116 104 23 22 73 70 110 106 78 74 183
185 264 279 30 35 70 79 87 99 18 20 33 39 33 42 0 3 10 17 23 31 43 48 67 78
67 84 0 4 18 28 40 54 22 26 40 52 40 58 0 6 4 12 9 14 17 6 206 299 294 456
40 72 194 379 214 428 7 16 30 71 52 122 22 50 37 92 34 92 -3 0 -1 6 5 13 14
17 128 356 148 442 1 6 11 44 22 85 34 128 65 264 76 336 4 22 8 46 11 54 2 8
6 38 10 65 3 28 8 59 10 70 10 49 26 186 42 355 16 178 9 707 -12 870 -2 19
-9 78 -15 130 -6 52 -18 136 -27 185 -8 50 -17 104 -20 120 -2 17 -14 68 -25
115 -11 47 -26 112 -33 145 -50 222 -180 603 -287 840 -36 80 -162 330 -204
405 -65 115 -210 347 -229 366 -8 9 -15 19 -15 23 0 4 -11 21 -25 37 -14 16
-25 34 -25 41 0 6 -4 13 -8 15 -7 2 -58 67 -187 237 -11 14 -29 35 -40 47 -11
12 -40 45 -65 75 -25 29 -68 77 -96 106 -28 29 -50 53 -49 53 12 0 -312 305
-377 356 -27 20 -48 41 -48 45 0 5 -5 9 -10 9 -6 0 -21 9 -33 21 -45 42 -255
196 -376 275 -69 46 -131 88 -138 94 -7 5 -14 10 -16 10 -3 0 -55 29 -116 65
-113 66 -399 211 -501 254 -329 139 -740 268 -1015 316 -11 2 -33 7 -50 10
-72 14 -174 30 -245 39 -25 3 -54 8 -66 10 -11 2 -58 7 -105 11 -46 4 -97 9
-114 12 -40 6 -609 15 -615 10z"/>
</g>
</svg>
